HIERARCHY
ROOT Hips
{
    OFFSET 0.000 91.545 0.000
    CHANNELS 6 Xposition Yposition Zposition Yrotation Xrotation Zrotation
    JOINT RightUpLeg
    {
        OFFSET -9.250 -0.000 0.000
        CHANNELS 3 Yrotation Xrotation Zrotation
        JOINT RightLeg
        {
            OFFSET 0.000 -41.927 0.000
            CHANNELS 3 Yrotation Xrotation Zrotation
            JOINT RightFoot
            {
                OFFSET 0.000 -41.927 0.000
                CHANNELS 3 Yrotation Xrotation Zrotation
                End Site
                {
                    OFFSET 0.000 -7.690 15.750
                }
            }
        }
    }
    JOINT LeftUpLeg
    {
        OFFSET 9.250 -0.000 0.000
        CHANNELS 3 Yrotation Xrotation Zrotation
        JOINT LeftLeg
        {
            OFFSET 0.000 -41.927 0.000
            CHANNELS 3 Yrotation Xrotation Zrotation
            JOINT LeftFoot
            {
                OFFSET 0.000 -41.927 0.000
                CHANNELS 3 Yrotation Xrotation Zrotation
                End Site
                {
                    OFFSET 0.000 -7.690 15.750
                }
            }
        }
    }
    JOINT Spine
    {
        OFFSET 0.000 7.818 0.000
        CHANNELS 3 Yrotation Xrotation Zrotation
        JOINT Spine1
        {
            OFFSET 0.000 17.310 0.000
            CHANNELS 3 Yrotation Xrotation Zrotation
            JOINT Spine2
            {
                OFFSET 0.000 12.285 0.000
                CHANNELS 3 Yrotation Xrotation Zrotation
                JOINT Neck
                {
                    OFFSET 0.000 18.427 0.000
                    CHANNELS 3 Yrotation Xrotation Zrotation
                    JOINT Neck1
                    {
                        OFFSET 0.000 4.735 0.000
                        CHANNELS 3 Yrotation Xrotation Zrotation
                        JOINT Head
                        {
                            OFFSET 0.000 4.735 0.000
                            CHANNELS 3 Yrotation Xrotation Zrotation
                            End Site
                            {
                                OFFSET 0.000 15.940 0.000
                            }
                        }
                    }
                }
                JOINT RightShoulder
                {
                    OFFSET -2.792 12.843 0.000
                    CHANNELS 3 Yrotation Xrotation Zrotation
                    JOINT RightArm
                    {
                        OFFSET -13.208 0.000 0.000
                        CHANNELS 3 Yrotation Xrotation Zrotation
                        JOINT RightForeArm
                        {
                            OFFSET -27.800 0.000 0.000
                            CHANNELS 3 Yrotation Xrotation Zrotation
                            JOINT RightHand
                            {
                                OFFSET -22.300 0.000 0.000
                                CHANNELS 3 Yrotation Xrotation Zrotation
                                JOINT RightHandThumb1
                                {
                                    OFFSET -1.565 0.119 1.961
                                    CHANNELS 3 Yrotation Xrotation Zrotation
                                    JOINT RightHandThumb2
                                    {
                                        OFFSET -2.315 0.000 0.000
                                        CHANNELS 3 Yrotation Xrotation Zrotation
                                        JOINT RightHandThumb3
                                        {
                                            OFFSET -1.608 0.000 0.000
                                            CHANNELS 3 Yrotation Xrotation Zrotation
                                            End Site
                                            {
                                                OFFSET -1.379 0.000 0.000
                                            }
                                        }
                                    }
                                }
                                JOINT RightInHandIndex
                                {
                                    OFFSET -2.026 0.320 1.244
                                    CHANNELS 3 Yrotation Xrotation Zrotation
                                    JOINT RightHandIndex1
                                    {
                                        OFFSET -3.279 -0.057 0.628
                                        CHANNELS 3 Yrotation Xrotation Zrotation
                                        JOINT RightHandIndex2
                                        {
                                            OFFSET -2.275 0.000 0.000
                                            CHANNELS 3 Yrotation Xrotation Zrotation
                                            JOINT RightHandIndex3
                                            {
                                                OFFSET -1.290 0.000 0.000
                                                CHANNELS 3 Yrotation Xrotation Zrotation
                                                End Site
                                                {
                                                    OFFSET -1.135 0.000 0.000
                                                }
                                            }
                                        }
                                    }
                                }
                                JOINT RightInHandMiddle
                                {
                                    OFFSET -2.126 0.325 0.476
                                    CHANNELS 3 Yrotation Xrotation Zrotation
                                    JOINT RightHandMiddle1
                                    {
                                        OFFSET -3.252 -0.053 0.197
                                        CHANNELS 3 Yrotation Xrotation Zrotation
                                        JOINT RightHandMiddle2
                                        {
                                            OFFSET -2.483 0.000 0.000
                                            CHANNELS 3 Yrotation Xrotation Zrotation
                                            JOINT RightHandMiddle3
                                            {
                                                OFFSET -1.556 0.000 0.000
                                                CHANNELS 3 Yrotation Xrotation Zrotation
                                                End Site
                                                {
                                                    OFFSET -1.241 0.000 0.000
                                                }
                                            }
                                        }
                                    }
                                }
                                JOINT RightInHandRing
                                {
                                    OFFSET -2.115 0.338 -0.081
                                    CHANNELS 3 Yrotation Xrotation Zrotation
                                    JOINT RightHandRing1
                                    {
                                        OFFSET -2.913 -0.014 -0.301
                                        CHANNELS 3 Yrotation Xrotation Zrotation
                                        JOINT RightHandRing2
                                        {
                                            OFFSET -2.164 0.000 0.000
                                            CHANNELS 3 Yrotation Xrotation Zrotation
                                            JOINT RightHandRing3
                                            {
                                                OFFSET -1.501 0.000 0.000
                                                CHANNELS 3 Yrotation Xrotation Zrotation
                                                End Site
                                                {
                                                    OFFSET -1.167 0.000 0.000
                                                }
                                            }
                                        }
                                    }
                                }
                                JOINT RightInHandPinky
                                {
                                    OFFSET -1.987 0.295 -0.755
                                    CHANNELS 3 Yrotation Xrotation Zrotation
                                    JOINT RightHandPinky1
                                    {
                                        OFFSET -2.603 -0.014 -0.685
                                        CHANNELS 3 Yrotation Xrotation Zrotation
                                        JOINT RightHandPinky2
                                        {
                                            OFFSET -1.733 0.000 0.000
                                            CHANNELS 3 Yrotation Xrotation Zrotation
                                            JOINT RightHandPinky3
                                            {
                                                OFFSET -1.095 0.000 0.000
                                                CHANNELS 3 Yrotation Xrotation Zrotation
                                                End Site
                                                {
                                                    OFFSET -1.034 0.000 0.000
                                                }
                                            }
                                        }
                                    }
                                }
                            }
                        }
                    }
                }
                JOINT LeftShoulder
                {
                    OFFSET 2.792 12.843 0.000
                    CHANNELS 3 Yrotation Xrotation Zrotation
                    JOINT LeftArm
                    {
                        OFFSET 13.208 0.000 0.000
                        CHANNELS 3 Yrotation Xrotation Zrotation
                        JOINT LeftForeArm
                        {
                            OFFSET 27.800 0.000 0.000
                            CHANNELS 3 Yrotation Xrotation Zrotation
                            JOINT LeftHand
                            {
                                OFFSET 22.300 0.000 0.000
                                CHANNELS 3 Yrotation Xrotation Zrotation
                                JOINT LeftHandThumb1
                                {
                                    OFFSET 1.565 0.119 1.961
                                    CHANNELS 3 Yrotation Xrotation Zrotation
                                    JOINT LeftHandThumb2
                                    {
                                        OFFSET 2.315 0.000 0.000
                                        CHANNELS 3 Yrotation Xrotation Zrotation
                                        JOINT LeftHandThumb3
                                        {
                                            OFFSET 1.608 0.000 0.000
                                            CHANNELS 3 Yrotation Xrotation Zrotation
                                            End Site
                                            {
                                                OFFSET 1.379 0.000 0.000
                                            }
                                        }
                                    }
                                }
                                JOINT LeftInHandIndex
                                {
                                    OFFSET 2.026 0.320 1.244
                                    CHANNELS 3 Yrotation Xrotation Zrotation
                                    JOINT LeftHandIndex1
                                    {
                                        OFFSET 3.279 -0.057 0.628
                                        CHANNELS 3 Yrotation Xrotation Zrotation
                                        JOINT LeftHandIndex2
                                        {
                                            OFFSET 2.275 0.000 0.000
                                            CHANNELS 3 Yrotation Xrotation Zrotation
                                            JOINT LeftHandIndex3
                                            {
                                                OFFSET 1.290 0.000 0.000
                                                CHANNELS 3 Yrotation Xrotation Zrotation
                                                End Site
                                                {
                                                    OFFSET 1.135 0.000 0.000
                                                }
                                            }
                                        }
                                    }
                                }
                                JOINT LeftInHandMiddle
                                {
                                    OFFSET 2.126 0.325 0.476
                                    CHANNELS 3 Yrotation Xrotation Zrotation
                                    JOINT LeftHandMiddle1
                                    {
                                        OFFSET 3.252 -0.053 0.197
                                        CHANNELS 3 Yrotation Xrotation Zrotation
                                        JOINT LeftHandMiddle2
                                        {
                                            OFFSET 2.483 0.000 0.000
                                            CHANNELS 3 Yrotation Xrotation Zrotation
                                            JOINT LeftHandMiddle3
                                            {
                                                OFFSET 1.556 0.000 0.000
                                                CHANNELS 3 Yrotation Xrotation Zrotation
                                                End Site
                                                {
                                                    OFFSET 1.241 0.000 0.000
                                                }
                                            }
                                        }
                                    }
                                }
                                JOINT LeftInHandRing
                                {
                                    OFFSET 2.115 0.338 -0.081
                                    CHANNELS 3 Yrotation Xrotation Zrotation
                                    JOINT LeftHandRing1
                                    {
                                        OFFSET 2.913 -0.014 -0.301
                                        CHANNELS 3 Yrotation Xrotation Zrotation
                                        JOINT LeftHandRing2
                                        {
                                            OFFSET 2.164 0.000 0.000
                                            CHANNELS 3 Yrotation Xrotation Zrotation
                                            JOINT LeftHandRing3
                                            {
                                                OFFSET 1.501 0.000 0.000
                                                CHANNELS 3 Yrotation Xrotation Zrotation
                                                End Site
                                                {
                                                    OFFSET 1.167 0.000 0.000
                                                }
                                            }
                                        }
                                    }
                                }
                                JOINT LeftInHandPinky
                                {
                                    OFFSET 1.987 0.295 -0.755
                                    CHANNELS 3 Yrotation Xrotation Zrotation
                                    JOINT LeftHandPinky1
                                    {
                                        OFFSET 2.603 -0.014 -0.685
                                        CHANNELS 3 Yrotation Xrotation Zrotation
                                        JOINT LeftHandPinky2
                                        {
                                            OFFSET 1.733 0.000 0.000
                                            CHANNELS 3 Yrotation Xrotation Zrotation
                                            JOINT LeftHandPinky3
                                            {
                                                OFFSET 1.095 0.000 0.000
                                                CHANNELS 3 Yrotation Xrotation Zrotation
                                                End Site
                                                {
                                                    OFFSET 1.034 0.000 0.000
                                                }
                                            }
                                        }
                                    }
                                }
                            }
                        }
                    }
                }
            }
        }
    }
}
MOTION
Frames: 5
Frame Time: 0.008333
0.455953 91.628387 0.746889 169.078918 178.417908 -179.796356 10.577007 -4.322047 -0.317365 -0.000000 3.659015 -0.000001 7.982261 -2.816388 0.779694 14.821556 -5.136739 -1.197945 -0.000000 8.680022 -0.000006 7.463779 -3.569739 1.583794 -8.934289 -2.777730 -0.451737 7.448874 2.268341 1.113411 -3.519512 -0.131111 0.257027 0.000008 9.429041 3.706237 -0.000000 11.000549 3.838608 -3.982430 8.060366 1.936028 2.173444 3.034076 3.100312 25.651220 -4.491509 76.222252 5.200269 -1.121254 3.171495 -6.195054 -0.775774 0.532427 21.860001 0.000000 30.000000 -10.000000 0.000000 0.000000 -10.000000 0.000000 0.000000 0.000000 0.000000 0.000000 2.550000 0.000000 20.000000 0.000000 0.000000 24.000000 0.000000 0.000000 20.000000 0.000000 0.000000 0.000000 0.000000 0.000000 20.000000 0.000000 0.000000 24.000000 0.000000 0.000000 20.000000 0.000000 0.000000 0.000000 -3.000000 0.000000 20.000000 0.000000 0.000000 24.000000 0.000000 0.000000 20.000000 0.000000 0.000000 0.000000 -8.830000 0.000000 20.000000 0.000000 0.000000 24.000000 0.000000 0.000000 20.000000 -2.794892 5.730086 1.317181 -5.628403 -3.201203 -76.447708 2.446427 -37.381680 -12.202275 -0.370710 28.230457 -2.045034 -21.860001 0.000000 -30.000000 10.000000 0.000000 0.000000 10.000000 0.000000 0.000000 0.000000 0.000000 0.000000 -2.550000 0.000000 -20.000000 0.000000 0.000000 -24.000000 0.000000 0.000000 -20.000000 0.000000 0.000000 0.000000 0.000000 0.000000 -20.000000 0.000000 0.000000 -24.000000 0.000000 0.000000 -20.000000 0.000000 0.000000 0.000000 3.000000 0.000000 -20.000000 0.000000 0.000000 -24.000000 0.000000 0.000000 -20.000000 0.000000 0.000000 0.000000 8.830000 0.000000 -20.000000 0.000000 0.000000 -24.000000 0.000000 0.000000 -20.000000 
0.457661 91.628311 0.747084 169.078934 178.417908 -179.799561 10.413458 -4.311521 -0.308054 -0.000007 3.635028 -0.000021 8.142803 -2.802575 0.776076 14.712635 -5.145770 -1.194363 0.000007 8.692327 0.000003 7.572648 -3.574626 1.575042 -8.933958 -2.781884 -0.449884 7.449052 2.270367 1.112887 -3.518210 -0.131906 0.257682 -0.000005 9.431066 3.705235 0.000007 11.002913 3.837572 -3.983629 8.062172 1.935166 2.171630 3.037359 3.102057 25.644094 -4.493157 76.221985 5.201484 -1.122748 3.171614 -6.192185 -0.773661 0.531887 21.860001 0.000000 30.000000 -10.000000 0.000000 0.000000 -10.000000 0.000000 0.000000 0.000000 0.000000 0.000000 2.550000 0.000000 20.000000 0.000000 0.000000 24.000000 0.000000 0.000000 20.000000 0.000000 0.000000 0.000000 0.000000 0.000000 20.000000 0.000000 0.000000 24.000000 0.000000 0.000000 20.000000 0.000000 0.000000 0.000000 -3.000000 0.000000 20.000000 0.000000 0.000000 24.000000 0.000000 0.000000 20.000000 0.000000 0.000000 0.000000 -8.830000 0.000000 20.000000 0.000000 0.000000 24.000000 0.000000 0.000000 20.000000 -2.796896 5.732913 1.316662 -5.626151 -3.200094 -76.448845 2.439991 -37.382206 -12.197434 -0.369910 28.229597 -2.047578 -21.860001 0.000000 -30.000000 10.000000 0.000000 0.000000 10.000000 0.000000 0.000000 0.000000 0.000000 0.000000 -2.550000 0.000000 -20.000000 0.000000 0.000000 -24.000000 0.000000 0.000000 -20.000000 0.000000 0.000000 0.000000 0.000000 0.000000 -20.000000 0.000000 0.000000 -24.000000 0.000000 0.000000 -20.000000 0.000000 0.000000 0.000000 3.000000 0.000000 -20.000000 0.000000 0.000000 -24.000000 0.000000 0.000000 -20.000000 0.000000 0.000000 0.000000 8.830000 0.000000 -20.000000 0.000000 0.000000 -24.000000 0.000000 0.000000 -20.000000 
0.459137 91.628281 0.747341 169.078705 178.417923 -179.800980 10.359334 -4.306076 -0.305184 0.000007 3.623148 0.000002 8.195786 -2.795064 0.775181 14.604351 -5.150897 -1.192393 0.000006 8.697968 -0.000011 7.681235 -3.576579 1.567134 -8.932992 -2.787133 -0.449719 7.448652 2.274127 1.113033 -3.516946 -0.132468 0.257438 0.000002 9.432644 3.704372 0.000001 11.004742 3.836660 -3.983962 8.063563 1.934524 2.169857 3.039054 3.103654 25.638166 -4.494191 76.222076 5.202106 -1.124730 3.171865 -6.189247 -0.772643 0.531088 21.860001 0.000000 30.000000 -10.000000 0.000000 0.000000 -10.000000 0.000000 0.000000 0.000000 0.000000 0.000000 2.550000 0.000000 20.000000 0.000000 0.000000 24.000000 0.000000 0.000000 20.000000 0.000000 0.000000 0.000000 0.000000 0.000000 20.000000 0.000000 0.000000 24.000000 0.000000 0.000000 20.000000 0.000000 0.000000 0.000000 -3.000000 0.000000 20.000000 0.000000 0.000000 24.000000 0.000000 0.000000 20.000000 0.000000 0.000000 0.000000 -8.830000 0.000000 20.000000 0.000000 0.000000 24.000000 0.000000 0.000000 20.000000 -2.798716 5.734197 1.316411 -5.623534 -3.198798 -76.449959 2.434078 -37.382191 -12.193155 -0.368669 28.228518 -2.048241 -21.860001 0.000000 -30.000000 10.000000 0.000000 0.000000 10.000000 0.000000 0.000000 0.000000 0.000000 0.000000 -2.550000 0.000000 -20.000000 0.000000 0.000000 -24.000000 0.000000 0.000000 -20.000000 0.000000 0.000000 0.000000 0.000000 0.000000 -20.000000 0.000000 0.000000 -24.000000 0.000000 0.000000 -20.000000 0.000000 0.000000 0.000000 3.000000 0.000000 -20.000000 0.000000 0.000000 -24.000000 0.000000 0.000000 -20.000000 0.000000 0.000000 0.000000 8.830000 0.000000 -20.000000 0.000000 0.000000 -24.000000 0.000000 0.000000 -20.000000 
0.460200 91.628235 0.747869 169.078247 178.417953 -179.800629 10.360082 -4.306459 -0.306243 -0.000007 3.624335 0.000002 8.195808 -2.793901 0.774956 14.551569 -5.151387 -1.192747 0.000004 8.697837 0.000003 7.734623 -3.576416 1.564224 -8.931653 -2.793444 -0.451412 7.447845 2.279477 1.113983 -3.516055 -0.132827 0.256238 0.000005 9.433820 3.703573 -0.000003 11.006128 3.835849 -3.982965 8.064575 1.934111 2.168317 3.038863 3.104802 25.633894 -4.494634 76.223404 5.202614 -1.126872 3.172100 -6.187044 -0.773682 0.529998 21.860001 0.000000 30.000000 -10.000000 0.000000 0.000000 -10.000000 0.000000 0.000000 0.000000 0.000000 0.000000 2.550000 0.000000 20.000000 0.000000 0.000000 24.000000 0.000000 0.000000 20.000000 0.000000 0.000000 0.000000 0.000000 0.000000 20.000000 0.000000 0.000000 24.000000 0.000000 0.000000 20.000000 0.000000 0.000000 0.000000 -3.000000 0.000000 20.000000 0.000000 0.000000 24.000000 0.000000 0.000000 20.000000 0.000000 0.000000 0.000000 -8.830000 0.000000 20.000000 0.000000 0.000000 24.000000 0.000000 0.000000 20.000000 -2.800159 5.733955 1.316724 -5.619917 -3.197270 -76.451653 2.429010 -37.381168 -12.189598 -0.366948 28.227247 -2.046559 -21.860001 0.000000 -30.000000 10.000000 0.000000 0.000000 10.000000 0.000000 0.000000 0.000000 0.000000 0.000000 -2.550000 0.000000 -20.000000 0.000000 0.000000 -24.000000 0.000000 0.000000 -20.000000 0.000000 0.000000 0.000000 0.000000 0.000000 -20.000000 0.000000 0.000000 -24.000000 0.000000 0.000000 -20.000000 0.000000 0.000000 0.000000 3.000000 0.000000 -20.000000 0.000000 0.000000 -24.000000 0.000000 0.000000 -20.000000 0.000000 0.000000 0.000000 8.830000 0.000000 -20.000000 0.000000 0.000000 -24.000000 0.000000 0.000000 -20.000000 
0.460971 91.628197 0.748629 169.078003 178.417969 -179.800461 10.360189 -4.306028 -0.306943 0.000007 3.624030 -0.000008 8.196717 -2.791883 0.774112 14.608710 -5.150555 -1.194398 0.000003 8.699560 -0.000008 7.677728 -3.577969 1.569986 -8.930806 -2.799994 -0.453339 7.447199 2.285002 1.115317 -3.515958 -0.133197 0.255143 -0.000004 9.434930 3.702572 -0.000008 11.007426 3.834817 -3.980909 8.065512 1.933727 2.167807 3.037980 3.105426 25.629850 -4.494646 76.225769 5.203850 -1.128485 3.172096 -6.186347 -0.776156 0.529469 21.860001 0.000000 30.000000 -10.000000 0.000000 0.000000 -10.000000 0.000000 0.000000 0.000000 0.000000 0.000000 2.550000 0.000000 20.000000 0.000000 0.000000 24.000000 0.000000 0.000000 20.000000 0.000000 0.000000 0.000000 0.000000 0.000000 20.000000 0.000000 0.000000 24.000000 0.000000 0.000000 20.000000 0.000000 0.000000 0.000000 -3.000000 0.000000 20.000000 0.000000 0.000000 24.000000 0.000000 0.000000 20.000000 0.000000 0.000000 0.000000 -8.830000 0.000000 20.000000 0.000000 0.000000 24.000000 0.000000 0.000000 20.000000 -2.801235 5.733503 1.317406 -5.615223 -3.195869 -76.454559 2.424662 -37.379639 -12.186254 -0.365060 28.226419 -2.043623 -21.860001 0.000000 -30.000000 10.000000 0.000000 0.000000 10.000000 0.000000 0.000000 0.000000 0.000000 0.000000 -2.550000 0.000000 -20.000000 0.000000 0.000000 -24.000000 0.000000 0.000000 -20.000000 0.000000 0.000000 0.000000 0.000000 0.000000 -20.000000 0.000000 0.000000 -24.000000 0.000000 0.000000 -20.000000 0.000000 0.000000 0.000000 3.000000 0.000000 -20.000000 0.000000 0.000000 -24.000000 0.000000 0.000000 -20.000000 0.000000 0.000000 0.000000 8.830000 0.000000 -20.000000 0.000000 0.000000 -24.000000 0.000000 0.000000 -20.000000 
